<?xml version="1.0" standalone="no"?>
<!DOCTYPE svg PUBLIC "-//W3C//DTD SVG 20010904//EN"
 "http://www.w3.org/TR/2001/REC-SVG-20010904/DTD/svg10.dtd">
<svg version="1.0" xmlns="http://www.w3.org/2000/svg"
 width="640.000000pt" height="640.000000pt" viewBox="0 0 640.000000 640.000000"
 preserveAspectRatio="xMidYMid meet">

<g transform="translate(0.000000,640.000000) scale(0.100000,-0.100000)"
fill="#000000" stroke="none">
<path d="M3191 6006 c-7 -8 -28 -17 -49 -21 -20 -4 -44 -13 -53 -21 -19 -17
-108 -21 -136 -6 -30 17 -78 15 -93 -3 -8 -9 -21 -13 -35 -9 -17 4 -27 0 -37
-15 -7 -12 -20 -21 -29 -21 -8 0 -26 -11 -39 -25 -13 -14 -32 -25 -42 -25 -10
0 -29 -18 -44 -39 -23 -36 -29 -39 -51 -30 -13 5 -42 9 -65 9 -33 0 -45 -6
-71 -35 -22 -25 -39 -35 -59 -35 -41 0 -63 -14 -77 -49 -9 -19 -22 -31 -41
-35 -20 -3 -41 -22 -67 -56 -20 -27 -40 -50 -44 -50 -3 0 -19 -18 -34 -40 -15
-22 -35 -40 -44 -40 -22 0 -66 -46 -80 -82 -6 -16 -17 -28 -25 -28 -18 0 -50
-67 -67 -140 -7 -30 -25 -72 -40 -93 -32 -44 -53 -150 -44 -217 3 -25 8 -94 9
-155 2 -60 11 -142 19 -181 13 -59 38 -233 62 -429 2 -22 -9 10 -24 70 -16 61
-30 101 -30 90 -1 -11 21 -108 48 -216 42 -165 62 -230 89 -281 2 -4 -14 0
-35 9 -51 21 -159 22 -200 0 -143 -75 -167 -395 -44 -585 96 -147 294 -262
452 -262 l58 0 32 -57 c47 -83 197 -228 294 -285 97 -58 240 -117 355 -147 47
-13 110 -31 140 -41 l55 -19 -1 -78 c0 -43 -6 -95 -13 -116 -10 -30 -17 -37
-39 -37 -34 0 -209 -84 -304 -146 -122 -79 -200 -125 -204 -121 -7 7 227 157
351 224 44 25 69 41 55 38 -40 -11 -244 -131 -390 -230 -126 -85 -294 -184
-260 -152 45 42 223 177 307 233 52 35 92 64 87 64 -5 0 -22 -9 -39 -20 -33
-22 -50 -26 -39 -9 9 16 -46 -14 -181 -99 -279 -174 -513 -371 -590 -497 -10
-16 4 -5 31 25 67 75 186 188 264 250 64 52 300 215 373 259 73 44 48 13 -45
-56 -51 -38 -136 -106 -189 -150 -53 -44 -140 -113 -193 -153 -119 -90 -181
-157 -225 -246 -19 -38 -63 -117 -97 -175 -202 -341 -320 -653 -345 -909 -6
-58 -18 -151 -28 -207 l-17 -103 28 0 c24 0 28 4 28 28 0 34 14 57 29 48 7 -5
11 2 11 17 0 35 62 255 110 387 63 176 66 165 11 -42 -35 -133 -85 -378 -78
-384 2 -3 14 46 26 108 45 230 117 488 205 733 25 69 -33 -56 -87 -190 -80
-195 -128 -327 -153 -420 -10 -38 -20 -62 -22 -52 -2 10 17 93 43 185 46 166
57 202 89 275 10 23 12 36 5 32 -14 -9 -8 12 33 115 50 127 290 577 336 631
69 80 278 225 457 316 93 47 224 121 290 163 66 43 162 99 213 124 l93 47 35
-30 c92 -81 301 -94 489 -30 84 29 103 39 120 66 11 18 25 32 32 33 7 0 37
-11 68 -25 52 -23 55 -25 43 -45 -20 -33 -150 -135 -210 -164 -66 -32 -173
-56 -255 -56 -134 0 -317 56 -409 126 -53 40 -64 42 -64 10 0 -46 134 -140
267 -187 43 -16 89 -22 178 -24 l120 -3 -110 7 c-97 7 -203 26 -194 36 2 1 36
-4 74 -12 157 -33 352 -1 478 78 66 43 157 127 168 158 11 28 16 27 111 -42
43 -30 141 -93 220 -140 243 -144 390 -266 498 -411 219 -296 297 -466 355
-776 35 -183 144 -590 176 -652 15 -29 26 -38 44 -38 32 0 32 10 -4 128 -43
142 -47 185 -5 57 20 -60 40 -114 46 -120 7 -7 8 -2 3 15 -64 205 -185 617
-184 625 0 5 7 -6 15 -25 l14 -35 -6 35 c-24 134 -136 445 -224 621 -27 54
-48 99 -46 99 9 0 107 -174 148 -265 75 -165 133 -363 218 -749 27 -126 53
-232 56 -235 14 -14 -73 403 -113 538 -2 9 5 0 17 -19 24 -41 21 -19 -12 70
-11 30 -49 138 -84 239 -35 101 -69 190 -75 197 -6 7 -7 19 -3 25 4 8 3 9 -4
5 -7 -4 -21 13 -37 44 -30 59 -142 226 -195 290 -50 61 -59 80 -24 50 80 -70
68 -53 -39 55 -164 165 -578 468 -619 452 -8 -3 -3 -9 13 -15 74 -29 367 -245
499 -366 85 -79 77 -83 -14 -7 -140 118 -296 232 -296 218 0 -2 33 -28 73 -58
158 -117 368 -301 412 -361 32 -44 148 -279 141 -285 -3 -3 -14 14 -26 37 -28
55 -184 274 -234 328 -21 23 -32 40 -23 36 32 -12 17 3 -40 41 -32 21 -80 57
-108 80 -27 23 -84 65 -125 94 -41 28 -114 82 -162 119 -47 37 -101 76 -120
86 -43 24 -28 11 52 -49 143 -106 92 -79 -133 71 -95 63 -182 121 -194 129
-34 23 -37 18 -6 -10 l28 -25 -64 26 c-35 14 -80 26 -100 28 -35 2 -35 2 -63
88 -15 48 -29 106 -30 128 l-3 41 65 23 c211 75 454 245 564 395 49 66 101
175 122 253 l18 67 27 -15 c61 -31 181 -9 266 49 190 131 254 447 136 679 -20
41 -72 97 -104 114 -45 23 -120 18 -163 -11 -20 -14 -38 -25 -40 -25 -2 0 2
21 10 47 8 26 16 79 19 117 4 66 4 67 -5 21 -19 -103 -42 -195 -49 -200 -5 -2
-2 21 5 53 22 90 54 286 53 318 -1 16 -11 -27 -23 -96 l-21 -124 0 239 c0 399
-4 488 -25 572 -11 42 -24 81 -28 87 -5 6 -32 84 -62 173 -51 158 -79 210
-105 199 -8 -3 -18 7 -25 24 -15 37 -45 64 -63 57 -8 -3 -21 6 -30 21 -9 15
-45 54 -82 87 -36 33 -92 86 -125 119 -49 49 -63 57 -84 52 -20 -5 -31 2 -64
40 -29 34 -45 45 -57 40 -11 -4 -15 -13 -12 -27 8 -29 -4 -22 -70 42 -73 69
-101 89 -131 89 -12 0 -46 12 -74 26 -42 21 -55 24 -75 15 -20 -9 -33 -7 -70
9 -53 23 -86 25 -102 6z m114 -82 c30 -12 43 -13 66 -4 24 10 33 8 73 -15 25
-14 53 -25 63 -23 22 3 78 -34 116 -78 41 -48 92 -77 115 -65 15 8 23 3 45
-25 28 -35 54 -43 74 -23 9 9 20 -2 43 -40 22 -36 38 -51 53 -51 12 0 28 -9
35 -20 10 -17 9 -23 -8 -40 -11 -11 -20 -25 -20 -31 0 -18 -61 -141 -67 -135
-3 3 -1 11 4 18 5 7 20 40 32 73 13 33 27 68 32 78 6 11 8 21 5 24 -8 8 -36
-17 -36 -33 0 -7 -5 -25 -11 -41 -10 -26 -12 -27 -20 -8 -6 14 -7 10 -3 -14 4
-23 3 -31 -5 -27 -6 4 -12 17 -12 29 -1 16 -3 17 -6 5 -2 -9 1 -26 7 -37 6
-12 7 -21 2 -21 -5 0 -15 -21 -22 -47 -11 -37 -15 -43 -21 -27 -6 15 -8 13 -8
-11 1 -16 -4 -43 -10 -60 -9 -25 -10 -21 -4 25 3 30 7 67 8 82 1 15 7 33 13
41 7 8 10 16 7 19 -3 3 6 38 20 79 28 83 29 89 16 89 -5 0 -15 -16 -21 -36 -7
-19 -14 -33 -16 -31 -3 2 5 28 16 57 14 36 16 51 8 48 -7 -3 -27 -39 -44 -81
-16 -43 -34 -74 -39 -70 -4 5 -5 3 -2 -3 4 -7 0 -29 -8 -50 l-15 -39 5 35 c21
147 23 190 7 190 -4 0 -15 -17 -24 -38 -10 -20 -15 -28 -12 -17 4 11 10 34 14
50 4 17 10 40 14 52 6 18 4 22 -8 17 -9 -3 -16 -12 -16 -19 0 -7 -18 -57 -40
-111 l-40 -99 6 84 c8 107 -6 105 -63 -10 -23 -46 -46 -88 -50 -94 -4 -5 -14
-22 -22 -37 -8 -16 -18 -28 -23 -28 -5 0 -7 -8 -4 -18 12 -36 10 -152 -3 -165
-10 -10 -11 -4 -6 28 l6 40 -16 -30 -15 -30 5 30 c3 17 10 50 15 74 6 24 7 47
4 52 -9 16 -31 10 -31 -8 1 -57 -4 -97 -11 -88 -4 6 -13 11 -20 13 -10 2 -12
-12 -8 -60 5 -56 5 -59 -5 -28 -14 44 4 195 25 219 8 9 29 85 46 169 33 157
36 219 5 92 -9 -38 -19 -70 -21 -70 -2 0 -2 35 1 78 l5 77 -14 -60 -13 -60 -4
80 c-4 68 -5 61 -7 -46 -1 -70 -7 -151 -13 -180 -6 -30 -11 -72 -11 -94 1 -28
-2 -34 -7 -21 -5 12 -10 16 -14 9 -4 -6 -4 -18 -1 -27 3 -9 3 -24 -1 -33 -7
-17 -8 -16 -15 2 -7 17 -9 16 -10 -10 -1 -16 -8 -46 -15 -65 -13 -34 -13 -33
-14 47 -1 45 -5 84 -10 87 -12 8 -25 -87 -25 -184 0 -47 -2 -71 -4 -55 l-5 30
-8 -30 c-6 -21 -7 -11 -5 35 2 36 1 55 -1 43 -2 -13 -8 -23 -13 -23 -5 0 -10
-12 -12 -27 -2 -16 -7 28 -11 96 -5 68 -13 135 -18 149 -9 24 -11 24 -26 9
-19 -19 -31 -90 -33 -207 l-2 -85 -14 90 c-16 106 -32 151 -33 93 -1 -20 -5
-40 -11 -43 -13 -8 -13 -42 0 -50 7 -4 9 2 5 18 -4 14 -2 28 4 31 7 5 11 -7
11 -33 0 -27 -4 -40 -12 -39 -7 2 -15 -10 -19 -27 l-8 -30 1 30 c0 53 -2 65
-13 65 -6 0 -8 -9 -4 -21 5 -15 4 -19 -5 -14 -7 4 -10 21 -7 44 3 20 3 28 1
19 -6 -21 -40 -24 -47 -5 -3 6 -4 -10 -1 -38 3 -37 1 -46 -7 -35 -8 11 -9 1
-6 -38 2 -29 1 -55 -3 -57 -4 -2 -10 38 -14 90 -3 52 -11 118 -16 146 -14 71
-21 77 -34 29 -6 -19 -5 -22 4 -10 8 12 10 3 10 -35 0 -27 3 -79 6 -115 4 -36
3 -62 -1 -58 -4 3 -8 21 -10 40 -2 18 -11 62 -18 98 -17 76 -34 61 -23 -20 4
-28 3 -50 -1 -50 -4 0 -8 -26 -7 -57 1 -32 -1 -52 -3 -45 -3 6 -9 10 -14 6 -5
-3 -9 -1 -9 5 0 5 5 13 10 16 13 8 13 65 1 65 -5 0 -11 -6 -14 -12 -2 -7 -7
11 -11 40 -5 36 -11 52 -21 52 -18 0 -18 -12 -4 -64 7 -24 7 -42 1 -48 -6 -6
-12 4 -17 29 -6 36 -7 37 -22 18 -15 -20 -15 -20 -10 0 3 11 8 34 11 50 5 26
5 27 -5 11 -7 -11 -12 -47 -12 -80 1 -51 -1 -56 -8 -31 -5 17 -11 50 -12 75
-2 25 -7 54 -11 65 -17 45 -29 64 -38 59 -4 -3 -8 1 -8 10 0 8 -4 16 -9 18 -5
2 -17 19 -27 39 -59 113 -95 179 -98 179 -10 0 13 -59 49 -128 21 -40 36 -74
34 -77 -3 -2 -36 43 -73 101 -68 104 -102 138 -51 50 15 -25 23 -46 18 -46 -4
0 -3 -4 2 -8 17 -12 50 -66 51 -85 1 -13 -2 -15 -12 -6 -17 14 -18 23 -3 13 7
-4 10 -1 7 7 -3 8 -10 13 -15 12 -6 -1 -27 29 -49 67 -21 38 -40 67 -42 65 -5
-5 49 -119 79 -165 12 -19 17 -30 11 -25 -6 6 -27 37 -47 70 -20 33 -41 60
-48 60 -7 0 -11 8 -9 18 2 9 -2 17 -8 17 -5 0 -10 6 -10 14 0 8 -5 18 -11 22
-28 17 31 -131 77 -193 13 -17 24 -36 24 -41 0 -6 7 -12 15 -16 8 -3 15 -10
15 -16 0 -6 -5 -8 -11 -4 -8 5 -8 1 0 -14 6 -12 17 -24 24 -28 9 -6 9 -5 0 7
-19 23 -1 42 23 24 26 -20 34 -19 34 6 0 11 -4 18 -9 15 -4 -3 -19 7 -32 22
l-24 27 26 -23 c31 -27 47 -15 28 20 -12 22 -11 22 8 6 11 -10 26 -18 34 -18
37 -1 50 -27 50 -97 -1 -37 1 -89 3 -115 2 -27 -1 -48 -6 -48 -6 0 -7 18 -4
43 4 29 3 36 -3 22 -7 -14 -8 2 -6 49 5 76 2 78 -19 20 -11 -29 -15 -33 -15
-16 -1 32 -19 62 -37 62 -10 0 -13 -6 -9 -19 6 -21 -19 -49 -30 -31 -5 8 -11
8 -21 -1 -11 -9 -14 -8 -14 5 0 12 -10 16 -39 16 -36 0 -40 3 -46 30 -4 17
-11 28 -16 24 -5 -3 -7 -10 -4 -15 4 -5 1 -9 -4 -9 -6 0 -11 10 -12 23 l0 22
-9 -22 c-5 -13 -16 -23 -24 -23 -9 0 -13 -6 -10 -14 3 -8 1 -17 -5 -21 -7 -4
-8 0 -4 11 4 12 3 15 -5 10 -8 -5 -10 -1 -5 10 3 10 2 15 -3 12 -5 -3 -19 14
-32 38 -12 24 -20 44 -17 44 2 0 11 -13 20 -30 19 -38 54 -58 66 -39 5 8 6 23
2 34 -4 11 -7 28 -7 38 0 9 -3 17 -7 17 -4 0 -10 14 -14 30 -4 17 -11 28 -16
25 -5 -4 -2 -20 7 -37 13 -25 14 -32 2 -39 -11 -7 -10 -11 2 -18 8 -6 12 -13
9 -16 -6 -5 -79 77 -79 89 0 9 -41 48 -46 43 -2 -2 -1 -18 2 -36 5 -23 9 -29
15 -19 6 9 9 4 9 -14 0 -16 -5 -28 -11 -28 -5 0 -7 -5 -4 -10 4 -6 10 -8 15
-5 4 3 17 -13 29 -35 15 -29 17 -38 6 -33 -8 3 -15 9 -15 15 0 5 -11 19 -25
32 -14 13 -25 26 -25 30 0 14 -68 105 -74 99 -3 -4 -6 -1 -6 5 0 6 9 16 20 22
11 6 28 27 38 48 12 27 25 38 48 43 43 8 52 16 69 55 13 31 18 34 55 34 35 0
47 6 72 34 26 30 34 33 68 29 23 -3 55 1 83 12 24 9 56 15 71 13 24 -3 30 -12
55 -83 50 -142 112 -258 126 -235 10 16 -15 71 -29 63 -6 -4 -5 1 3 10 12 15
12 17 -1 12 -15 -6 -52 64 -96 182 l-20 52 24 16 c14 9 24 25 24 40 0 15 7 26
20 30 11 3 20 11 20 16 0 5 13 9 28 9 15 0 34 6 40 12 9 9 44 12 117 9 83 -2
109 0 127 13 12 9 37 16 55 16 17 0 35 5 38 10 9 14 27 13 70 -6z m349 -363
c-4 -22 -9 -41 -13 -41 -3 0 -7 -33 -9 -73 -2 -39 -8 -76 -13 -82 -7 -7 -8 0
-4 20 l7 30 -16 -29 c-9 -15 -16 -36 -16 -45 0 -9 -5 -22 -12 -29 -6 -6 -11
-26 -10 -44 0 -20 -2 -27 -7 -19 -7 11 -10 11 -14 0 -3 -8 -6 -4 -6 9 -1 12 3
22 8 22 5 0 12 18 16 40 4 22 11 42 16 46 14 8 11 34 -4 34 -16 0 -45 -60 -50
-105 -3 -22 -4 -18 -6 14 -1 32 5 53 22 75 13 17 43 75 67 128 24 54 45 96 47
94 2 -2 1 -22 -3 -45z m-187 -3 c-3 -8 -6 -5 -6 6 -1 11 2 17 5 13 3 -3 4 -12
1 -19z m293 -19 c-6 -18 -10 -46 -10 -61 0 -15 -5 -30 -11 -34 -8 -4 -9 1 -4
17 6 19 5 22 -6 12 -10 -10 -10 -17 0 -37 8 -14 10 -33 6 -47 -7 -21 -9 -21
-20 -6 -11 15 -13 14 -23 -9 -17 -35 -14 -44 4 -14 l15 25 -7 -25 c-3 -14 -12
-30 -20 -36 -8 -6 -14 -26 -14 -43 0 -19 -4 -30 -10 -26 -5 3 -10 0 -10 -7 -1
-13 -48 -118 -49 -108 -1 10 35 110 42 117 12 11 7 51 -6 56 -24 9 -39 -8 -32
-36 4 -14 2 -34 -5 -44 -9 -15 -10 -12 -4 16 4 22 3 31 -4 27 -18 -11 5 55 28
79 11 12 20 27 20 33 0 7 4 12 10 12 6 0 6 -10 -1 -27 -7 -18 -6 -30 1 -37 7
-7 10 -5 10 6 0 9 3 18 8 20 10 4 42 67 42 81 0 14 53 138 57 133 1 -1 -2 -18
-7 -37z m260 -10 c0 -6 -4 -8 -9 -5 -10 6 -21 -16 -21 -42 0 -13 2 -14 9 -3 6
9 11 10 15 2 7 -10 -7 -16 -28 -12 -5 1 -6 -7 -4 -17 3 -10 0 -19 -6 -19 -9 0
-9 12 0 49 7 26 16 53 19 58 7 12 25 4 25 -11z m46 -37 c-10 -2 -22 0 -28 6
-6 6 0 7 19 4 21 -5 23 -7 9 -10z m-245 -19 c-12 -20 -14 -14 -5 12 4 9 9 14
11 11 3 -2 0 -13 -6 -23z m-1632 -35 c-3 -26 1 -39 11 -33 5 3 19 -11 30 -32
11 -21 30 -54 41 -73 12 -19 15 -28 7 -19 -7 9 -17 14 -23 13 -5 -2 -20 11
-32 28 -18 26 -20 35 -10 47 10 12 9 13 -11 2 -13 -7 -27 -22 -32 -34 -6 -15
-9 -17 -9 -6 -1 9 6 22 14 29 17 14 21 35 5 25 -5 -3 -7 0 -4 8 5 14 -27 20
-36 6 -3 -4 -19 -10 -35 -14 l-30 -6 30 14 c17 8 39 24 49 36 21 23 38 28 35
9z m1606 -48 c-9 -28 -19 -50 -21 -48 -2 2 4 27 13 56 9 28 19 50 21 47 2 -2
-4 -27 -13 -55z m313 35 c-3 -3 -9 2 -12 12 -6 14 -5 15 5 6 7 -7 10 -15 7
-18z m-139 -45 c0 -10 -3 -8 -9 5 -12 27 -12 43 0 25 5 -8 9 -22 9 -30z m-764
-210 l-15 -55 4 125 c6 156 20 201 24 75 2 -60 -3 -109 -13 -145z m945 198 c0
-6 -7 -5 -15 2 -8 7 -15 17 -15 22 0 6 7 5 15 -2 8 -7 15 -17 15 -22z m-200
-3 c14 -18 13 -19 -1 -7 -14 11 -18 9 -23 -14 -4 -14 -9 -24 -12 -22 -2 3 1
19 7 37 6 18 12 31 13 29 1 -2 8 -12 16 -23z m243 -15 c3 -11 3 -20 1 -20 -2
0 -8 9 -14 20 -6 11 -7 20 -2 20 6 0 12 -9 15 -20z m-472 -23 c-8 -8 -11 -7
-11 4 0 20 13 34 18 19 3 -7 -1 -17 -7 -23z m224 -52 c-38 -71 -44 -64 -9 9
16 30 30 53 33 51 2 -3 -9 -30 -24 -60z m-184 32 c-10 -9 -11 -8 -5 6 3 10 9
15 12 12 3 -3 0 -11 -7 -18z m-51 -8 c0 -5 -4 -9 -10 -9 -5 0 -10 7 -10 16 0
8 5 12 10 9 6 -3 10 -10 10 -16z m312 -1 c-7 -7 -12 -8 -12 -2 0 14 12 26 19
19 2 -3 -1 -11 -7 -17z m-1807 -28 c0 -3 4 -12 10 -20 8 -13 7 -13 -8 -1 -9 7
-15 17 -12 21 3 5 1 11 -5 15 -5 3 -10 12 -10 18 1 11 24 -21 25 -33z m1695
20 c0 -5 -2 -10 -4 -10 -3 0 -8 5 -11 10 -3 6 -1 10 4 10 6 0 11 -4 11 -10z
m-593 -42 c-3 -7 -5 -2 -5 12 0 14 2 19 5 13 2 -7 2 -19 0 -25z m73 -20 c0
-34 -4 -48 -9 -38 -8 14 -3 90 5 90 2 0 4 -24 4 -52z m350 17 c0 -7 7 -18 15
-25 12 -10 15 -10 15 0 0 8 2 11 5 8 3 -3 3 -13 -1 -22 -5 -13 -9 -14 -20 -5
-8 6 -21 9 -29 5 -17 -6 -21 9 -5 19 6 3 10 13 10 21 0 11 -6 13 -22 8 -20 -6
-21 -5 -9 10 10 12 17 14 27 5 8 -6 14 -17 14 -24z m146 10 c-4 -14 -2 -25 4
-25 5 0 10 -5 10 -11 0 -8 -5 -8 -15 1 -12 10 -15 9 -15 -7 0 -10 -11 -34 -25
-53 -14 -19 -25 -29 -25 -23 0 7 7 18 15 27 9 8 15 19 14 23 -2 9 34 93 40 93
2 0 0 -11 -3 -25z m-94 -7 c-7 -7 -12 -8 -12 -2 0 14 12 26 19 19 2 -3 -1 -11
-7 -17z m-1627 -18 c10 -11 16 -20 13 -20 -3 0 -13 9 -23 20 -10 11 -16 20
-13 20 3 0 13 -9 23 -20z m1829 4 c4 -10 2 -13 -6 -8 -8 5 -9 1 -4 -12 5 -14
4 -16 -4 -8 -6 6 -8 18 -4 27 8 21 10 21 18 1z m-2013 -21 c-12 -20 -14 -14
-5 12 4 9 9 14 11 11 3 -2 0 -13 -6 -23z m1822 12 c-3 -9 -8 -14 -10 -11 -3 3
-2 9 2 15 9 16 15 13 8 -4z m-1579 -11 c3 -8 10 -12 16 -9 5 3 10 1 10 -4 0
-17 -15 -13 -35 9 -10 11 -13 20 -8 20 6 0 14 -7 17 -16z m172 1 c-3 -8 -1
-15 4 -15 6 0 10 -5 10 -11 0 -5 -5 -7 -11 -3 -7 4 -9 0 -5 -14 4 -11 2 -23
-3 -27 -7 -4 -8 1 -4 11 5 12 3 15 -6 9 -11 -6 -11 -3 0 16 7 13 12 25 11 27
-5 6 -1 22 4 22 3 0 4 -7 0 -15z m1147 -5 c3 -11 1 -18 -4 -14 -5 3 -9 12 -9
20 0 20 7 17 13 -6z m-1213 -25 c13 -14 21 -25 18 -25 -2 0 -15 11 -28 25 -13
14 -21 25 -18 25 2 0 15 -11 28 -25z m-240 9 c0 -8 -19 -13 -24 -6 -3 5 1 9 9
9 8 0 15 -2 15 -3z m350 -4 c0 -5 -2 -10 -4 -10 -3 0 -8 5 -11 10 -3 6 -1 10
4 10 6 0 11 -4 11 -10z m187 -12 c-3 -8 -6 -5 -6 6 -1 11 2 17 5 13 3 -3 4
-12 1 -19z m183 10 c0 -7 -5 -20 -10 -28 -8 -12 -10 -9 -10 13 0 15 5 27 10
27 6 0 10 -6 10 -12z m527 -50 c-2 -13 -4 -3 -4 22 0 25 2 35 4 23 2 -13 2
-33 0 -45z m543 32 c-12 -16 -24 -30 -26 -30 -3 0 4 14 16 30 12 17 24 30 26
30 3 0 -4 -13 -16 -30z m73 13 c-5 -11 -3 -14 6 -8 10 6 11 3 1 -16 -12 -21
-14 -21 -25 -6 -11 16 -13 16 -26 1 -11 -14 -10 -18 6 -30 10 -8 14 -14 8 -14
-7 0 -15 5 -18 10 -4 6 -11 8 -16 5 -14 -10 -11 -1 16 35 14 19 25 27 25 19 1
-10 3 -9 11 4 13 22 20 22 12 0z m-1742 -10 c13 -16 12 -17 -3 -4 -17 13 -22
21 -14 21 2 0 10 -8 17 -17z m1979 13 c0 -2 -7 -7 -16 -10 -8 -3 -12 -2 -9 4
6 10 25 14 25 6z m-1503 -28 c-3 -8 -6 -5 -6 6 -1 11 2 17 5 13 3 -3 4 -12 1
-19z m685 -10 c-9 -9 -12 -7 -12 12 0 19 3 21 12 12 9 -9 9 -15 0 -24z m115
10 c-3 -8 -6 -5 -6 6 -1 11 2 17 5 13 3 -3 4 -12 1 -19z m32 -27 c-7 -23 -14
-39 -16 -37 -3 2 1 23 8 45 7 23 14 39 16 37 3 -2 -1 -23 -8 -45z m64 29 c-3
-12 -8 -19 -11 -16 -5 6 5 36 12 36 2 0 2 -9 -1 -20z m511 -10 c-6 -6 -10 -3
-10 10 0 13 4 16 10 10 7 -7 7 -13 0 -20z m-2020 4 c3 -8 2 -12 -4 -9 -6 3
-10 10 -10 16 0 14 7 11 14 -7z m583 -6 c-3 -8 -6 -5 -6 6 -1 11 2 17 5 13 3
-3 4 -12 1 -19z m480 -40 c-2 -13 -4 -3 -4 22 0 25 2 35 4 23 2 -13 2 -33 0
-45z m342 17 c0 -5 -4 -3 -9 5 -5 8 -9 22 -9 30 0 16 17 -16 18 -35z m-1277
16 c15 -18 15 -19 -6 -17 -13 0 -23 8 -23 18 -2 23 9 23 29 -1z m93 8 c11 -16
1 -19 -13 -3 -7 8 -8 14 -3 14 5 0 13 -5 16 -11z m1415 7 c0 -3 -4 -8 -10 -11
-5 -3 -10 -1 -10 4 0 6 5 11 10 11 6 0 10 -2 10 -4z m271 -19 c-10 -9 -11 -8
-5 6 3 10 9 15 12 12 3 -3 0 -11 -7 -18z m259 18 c0 -2 -10 -9 -22 -15 -22
-11 -22 -10 -4 4 21 17 26 19 26 11z m-2196 -21 c5 -14 4 -15 -9 -4 -17 14
-19 20 -6 20 5 0 12 -7 15 -16z m573 -6 c-3 -8 -6 -5 -6 6 -1 11 2 17 5 13 3
-3 4 -12 1 -19z m500 -10 c-3 -7 -5 -2 -5 12 0 14 2 19 5 13 2 -7 2 -19 0 -25z
m446 -19 c-6 -21 -7 -22 -14 -3 -6 15 -8 15 -8 3 -1 -9 -8 -23 -18 -30 -14
-12 -13 -9 2 21 11 19 18 41 16 49 -2 11 0 11 13 -1 9 -10 13 -24 9 -39z
m-855 -34 c0 -16 -2 -15 -8 5 -4 14 -8 36 -8 50 0 22 1 22 8 -5 4 -16 8 -39 8
-50z m329 -17 c-2 -18 -4 -4 -4 32 0 36 2 50 4 33 2 -18 2 -48 0 -65z m616 45
c-13 -13 -27 -23 -31 -23 -4 0 1 7 11 14 10 8 17 18 16 22 -5 26 1 35 15 22
11 -11 10 -17 -11 -35z m473 35 c4 -7 3 -8 -4 -4 -7 4 -12 2 -12 -5 0 -7 -3
-10 -6 -6 -6 5 3 27 11 27 2 0 7 -5 11 -12z m-1686 -2 c0 -2 -7 -7 -16 -10 -8
-3 -12 -2 -9 4 6 10 25 14 25 6z m317 -33 c-3 -10 -5 -4 -5 12 0 17 2 24 5 18
2 -7 2 -21 0 -30z m700 15 c-3 -8 -6 -5 -6 6 -1 11 2 17 5 13 3 -3 4 -12 1
-19z m273 14 c0 -5 -7 -17 -15 -28 -14 -18 -14 -17 -4 9 12 27 19 34 19 19z
m-1380 -12 c0 -5 -2 -10 -4 -10 -3 0 -8 5 -11 10 -3 6 -1 10 4 10 6 0 11 -4
11 -10z m163 -7 c-3 -7 -6 -13 -8 -13 -2 0 -5 6 -8 13 -3 8 1 14 8 14 7 0 11
-6 8 -14z m154 -5 c-3 -8 -6 -5 -6 6 -1 11 2 17 5 13 3 -3 4 -12 1 -19z m180
-15 c-3 -10 -5 -4 -5 12 0 17 2 24 5 18 2 -7 2 -21 0 -30z m370 -30 c-2 -16
-4 -5 -4 22 0 28 2 40 4 28 2 -13 2 -35 0 -50z m40 35 c-3 -7 -5 -2 -5 12 0
14 2 19 5 13 2 -7 2 -19 0 -25z m773 28 c0 -2 -7 -9 -15 -16 -13 -11 -14 -10
-9 4 5 14 24 23 24 12z m-1905 -26 c10 -11 16 -20 13 -20 -3 0 -13 9 -23 20
-10 11 -16 20 -13 20 3 0 13 -9 23 -20z m502 -12 c-3 -7 -5 -2 -5 12 0 14 2
19 5 13 2 -7 2 -19 0 -25z m680 -35 c-2 -16 -4 -5 -4 22 0 28 2 40 4 28 2 -13
2 -35 0 -50z m563 37 c-6 -12 -14 -20 -17 -17 -2 3 1 14 8 26 7 11 15 18 17
16 2 -2 -2 -13 -8 -25z m180 27 c0 -2 -10 -12 -22 -23 l-23 -19 19 23 c18 21
26 27 26 19z m100 -12 c-7 -8 -17 -15 -23 -15 -6 0 -2 7 9 15 25 19 30 19 14
0z m-1763 -1 c-3 -3 -12 -4 -19 -1 -8 3 -5 6 6 6 11 1 17 -2 13 -5z m103 -29
c0 -5 -5 -3 -10 5 -5 8 -10 20 -10 25 0 6 5 3 10 -5 5 -8 10 -19 10 -25z m107
3 c-3 -7 -5 -2 -5 12 0 14 2 19 5 13 2 -7 2 -19 0 -25z m1493 28 c0 -2 -7 -7
-16 -10 -8 -3 -12 -2 -9 4 6 10 25 14 25 6z m-1820 -10 c0 -2 -7 -7 -16 -10
-8 -3 -12 -2 -9 4 6 10 25 14 25 6z m1107 -28 c-3 -7 -5 -2 -5 12 0 14 2 19 5
13 2 -7 2 -19 0 -25z m40 10 c-3 -8 -6 -5 -6 6 -1 11 2 17 5 13 3 -3 4 -12 1
-19z m50 0 c-3 -8 -6 -5 -6 6 -1 11 2 17 5 13 3 -3 4 -12 1 -19z m-1167 3 c0
-5 -10 -11 -22 -14 -22 -6 -22 -6 -4 8 23 17 26 18 26 6z m107 -13 c-3 -8 -6
-5 -6 6 -1 11 2 17 5 13 3 -3 4 -12 1 -19z m560 -25 c-3 -10 -5 -2 -5 17 0 19
2 27 5 18 2 -10 2 -26 0 -35z m230 15 c-3 -7 -5 -2 -5 12 0 14 2 19 5 13 2 -7
2 -19 0 -25z m-807 18 c0 -3 -4 -8 -10 -11 -5 -3 -10 -1 -10 4 0 6 5 11 10 11
6 0 10 -2 10 -4z m277 -18 c-3 -8 -6 -5 -6 6 -1 11 2 17 5 13 3 -3 4 -12 1
-19z m70 -40 c-2 -13 -4 -3 -4 22 0 25 2 35 4 23 2 -13 2 -33 0 -45z m80 15
c0 -40 -1 -43 -7 -21 -7 23 -4 68 5 68 1 0 2 -21 2 -47z m120 15 c-3 -7 -5 -2
-5 12 0 14 2 19 5 13 2 -7 2 -19 0 -25z m420 10 c-3 -8 -6 -5 -6 6 -1 11 2 17
5 13 3 -3 4 -12 1 -19z m-1040 -3 c0 -8 -4 -12 -9 -9 -5 3 -6 10 -3 15 9 13
12 11 12 -6z m1433 9 c0 -8 -19 -13 -24 -6 -3 5 1 9 9 9 8 0 15 -2 15 -3z m87
-9 c0 -8 -4 -12 -9 -9 -5 3 -6 10 -3 15 9 13 12 11 12 -6z m-1332 -4 c3 -5 2
-12 -3 -15 -5 -3 -9 1 -9 9 0 17 3 19 12 6z m392 -23 c-3 -7 -5 -2 -5 12 0 14
2 19 5 13 2 -7 2 -19 0 -25z m610 10 c-3 -8 -6 -5 -6 6 -1 11 2 17 5 13 3 -3
4 -12 1 -19z m150 0 c2 -17 0 -19 -7 -8 -5 8 -6 18 -4 22 8 12 10 10 11 -14z
m-1177 -8 c6 -11 8 -20 6 -20 -3 0 -10 9 -16 20 -6 11 -8 20 -6 20 3 0 10 -9
16 -20z m927 -2 c-3 -8 -6 -5 -6 6 -1 11 2 17 5 13 3 -3 4 -12 1 -19z m-997
-8 c6 -11 8 -20 6 -20 -3 0 -10 9 -16 20 -6 11 -8 20 -6 20 3 0 10 -9 16 -20z
m30 10 c0 -5 -4 -10 -10 -10 -5 0 -10 5 -10 10 0 6 5 10 10 10 6 0 10 -4 10
-10z m237 -12 c-3 -8 -6 -5 -6 6 -1 11 2 17 5 13 3 -3 4 -12 1 -19z m190 0
c-3 -8 -6 -5 -6 6 -1 11 2 17 5 13 3 -3 4 -12 1 -19z m1103 19 c0 -2 -10 -12
-22 -23 l-23 -19 19 23 c18 21 26 27 26 19z m-1915 -46 c1 -11 -2 -18 -7 -15
-5 4 -7 12 -4 19 2 7 0 18 -5 24 -6 8 -5 8 3 1 6 -5 12 -19 13 -29z m552 17
c-3 -8 -6 -5 -6 6 -1 11 2 17 5 13 3 -3 4 -12 1 -19z m40 0 c-3 -8 -6 -5 -6 6
-1 11 2 17 5 13 3 -3 4 -12 1 -19z m993 18 c0 -2 -8 -10 -17 -17 -16 -13 -17
-12 -4 4 13 16 21 21 21 13z m70 -11 c-7 -9 -15 -13 -17 -11 -7 7 7 26 19 26
6 0 6 -6 -2 -15z m70 11 c0 -2 -8 -10 -17 -17 -16 -13 -17 -12 -4 4 13 16 21
21 21 13z m-1650 -38 c0 -6 -6 -5 -15 2 -8 7 -15 14 -15 16 0 2 7 1 15 -2 8
-4 15 -11 15 -16z m1267 -25 c-3 -10 -5 -2 -5 17 0 19 2 27 5 18 2 -10 2 -26
0 -35z m-999 17 c7 -11 11 -20 9 -20 -2 0 -12 9 -22 20 -10 11 -14 20 -9 20 5
0 15 -9 22 -20z m82 -5 c14 -19 14 -19 -2 -6 -10 7 -18 18 -18 24 0 6 1 8 3 6
1 -2 9 -13 17 -24z m1265 7 c-3 -3 -11 0 -18 7 -9 10 -8 11 6 5 10 -3 15 -9
12 -12z m-1654 -9 c13 -16 12 -17 -3 -4 -10 7 -18 15 -18 17 0 8 8 3 21 -13z
m649 -27 c0 -26 -6 -18 -14 19 -5 22 -4 26 4 15 5 -8 10 -24 10 -34z m131 21
c-10 -9 -11 -8 -5 6 3 10 9 15 12 12 3 -3 0 -11 -7 -18z m-248 5 c2 7 4 2 4
-12 0 -14 3 -34 7 -45 6 -15 4 -15 -6 3 -8 12 -17 19 -22 15 -4 -4 -4 0 0 10
3 10 1 17 -5 17 -6 0 -11 5 -11 11 0 8 4 8 14 0 11 -9 15 -9 19 1z m71 -8 c3
-8 2 -12 -4 -9 -6 3 -10 10 -10 16 0 14 7 11 14 -7z m936 12 c0 -2 -8 -10 -17
-17 -16 -13 -17 -12 -4 4 13 16 21 21 21 13z m95 -14 c-3 -3 -11 0 -18 7 -9
10 -8 11 6 5 10 -3 15 -9 12 -12z m75 13 c0 -1 -10 -10 -22 -21 -14 -12 -18
-13 -10 -3 6 9 10 18 7 21 -3 2 2 5 10 5 8 0 15 -1 15 -2z m-1496 -34 c-2 -3
-12 3 -22 13 -16 17 -16 18 5 5 12 -7 20 -15 17 -18z m1519 14 c-3 -9 -8 -14
-10 -11 -3 3 -2 9 2 15 9 16 15 13 8 -4z m-1808 -15 c10 -11 16 -20 13 -20 -3
0 -13 9 -23 20 -10 11 -16 20 -13 20 3 0 13 -9 23 -20z m449 4 c3 -8 2 -12 -4
-9 -6 3 -10 10 -10 16 0 14 7 11 14 -7z m-291 -14 c10 -12 9 -12 -4 -2 -9 6
-18 9 -22 6 -3 -3 -14 -1 -24 5 -15 8 -14 9 10 7 15 -1 33 -9 40 -16z m82 10
c3 -6 -1 -7 -9 -4 -18 7 -21 14 -7 14 6 0 13 -4 16 -10z m96 -12 c11 -20 10
-21 -3 -11 -8 7 -18 10 -22 6 -4 -4 -4 0 0 10 8 22 11 22 25 -5z m63 0 c-6
-21 -5 -22 11 -8 17 14 17 14 4 -7 -11 -18 -15 -20 -21 -9 -5 8 -5 21 -2 30 9
24 16 19 8 -6z m533 0 c-3 -8 -6 -5 -6 6 -1 11 2 17 5 13 3 -3 4 -12 1 -19z
m726 5 c-5 -12 -3 -14 7 -8 9 5 11 4 6 -4 -6 -9 -11 -9 -24 1 -14 11 -15 10
-8 -7 6 -17 5 -18 -6 -7 -11 11 -10 16 6 28 25 18 27 18 19 -3z m472 7 c-3 -5
-12 -10 -18 -10 -7 0 -6 4 3 10 19 12 23 12 15 0z m77 -3 c-12 -7 -19 -16 -16
-20 4 -4 3 -7 -3 -7 -5 0 -13 3 -17 7 -7 7 31 32 49 32 6 0 0 -5 -13 -12z
m-2277 -7 c3 -5 1 -10 -4 -10 -6 0 -11 5 -11 10 0 6 2 10 4 10 3 0 8 -4 11
-10z m645 -21 c15 -28 5 -23 -15 7 -9 15 -12 23 -6 20 6 -4 16 -16 21 -27z
m187 9 c-3 -8 -6 -5 -6 6 -1 11 2 17 5 13 3 -3 4 -12 1 -19z m959 -6 c-17 -16
-18 -16 -5 5 7 12 15 20 18 17 3 -2 -3 -12 -13 -22z m639 18 c3 -5 1 -10 -4
-10 -6 0 -11 5 -11 10 0 6 2 10 4 10 3 0 8 -4 11 -10z m-1673 -42 c-6 -6 -7 0
-4 19 5 21 7 23 10 9 2 -10 0 -22 -6 -28z m-691 5 c13 -16 12 -17 -3 -4 -17
13 -22 21 -14 21 2 0 10 -8 17 -17z m55 -6 c1 -9 -2 -15 -7 -11 -5 3 -7 9 -4
14 3 4 0 11 -5 13 -6 3 -5 4 1 3 7 -1 13 -10 15 -19z m1487 4 c-3 -11 -11 -22
-19 -25 -11 -4 -11 0 2 19 20 30 24 31 17 6z m812 9 c-3 -5 -12 -10 -18 -10
-7 0 -6 4 3 10 19 12 23 12 15 0z m-2200 -18 c-3 -3 -11 0 -18 7 -9 10 -8 11
6 5 10 -3 15 -9 12 -12z m167 -45 c9 -18 8 -18 -17 -1 -14 9 -23 19 -20 22 10
10 -17 31 -33 25 -14 -4 -15 -3 -2 6 16 11 52 -15 72 -52z m1136 38 c-3 -3 -9
2 -12 12 -6 14 -5 15 5 6 7 -7 10 -15 7 -18z m-1308 -32 c0 -8 -50 22 -54 33
-3 9 7 5 24 -8 17 -12 30 -23 30 -25z m627 15 c-3 -7 -5 -2 -5 12 0 14 2 19 5
13 2 -7 2 -19 0 -25z m970 17 c0 -8 -4 -12 -9 -9 -5 3 -6 10 -3 15 9 13 12 11
12 -6z m133 -37 c0 -5 -4 -8 -10 -8 -5 0 -10 -8 -11 -17 0 -11 -3 -13 -6 -5
-2 6 -8 10 -12 8 -4 -3 -13 4 -20 16 -10 16 -10 19 1 12 35 -22 47 -10 27 29
-9 19 -7 18 10 -3 11 -14 21 -28 21 -32z m-1413 36 c-3 -3 -12 -4 -19 -1 -8 3
-5 6 6 6 11 1 17 -2 13 -5z m240 -21 c1 -22 -1 -24 -8 -10 -6 9 -7 22 -4 27 9
14 10 13 12 -17z m440 -5 c-3 -7 -5 -2 -5 12 0 14 2 19 5 13 2 -7 2 -19 0 -25z
m1160 26 c-3 -3 -12 -4 -19 -1 -8 3 -5 6 6 6 11 1 17 -2 13 -5z m-2062 -14 c3
-6 -1 -7 -9 -4 -18 7 -21 14 -7 14 6 0 13 -4 16 -10z m130 -8 c-3 -3 -11 0
-18 7 -9 10 -8 11 6 5 10 -3 15 -9 12 -12z m1301 -2 c0 -12 -4 -16 -9 -11 -5
5 -6 14 -3 20 10 15 12 14 12 -9z m-1670 -1 c3 -6 1 -16 -6 -22 -10 -9 -11 -9
-5 2 4 8 2 17 -6 22 -9 6 -10 9 -2 9 6 0 15 -5 19 -11z m204 7 c0 -3 -4 -8
-10 -11 -5 -3 -10 -1 -10 4 0 6 5 11 10 11 6 0 10 -2 10 -4z m291 -23 l24 -28
-26 23 c-14 12 -29 19 -34 15 -4 -5 -5 -2 -1 5 9 16 9 16 37 -15z m76 -6 c6 2
14 0 17 -5 3 -5 -6 -8 -19 -6 -14 1 -27 -2 -31 -7 -3 -5 3 -9 13 -9 14 0 15
-2 4 -9 -10 -6 -5 -11 18 -16 18 -4 30 -9 27 -12 -7 -8 -97 26 -117 43 -9 8
-19 11 -24 7 -4 -5 -5 -2 -1 5 6 11 12 10 28 -4 25 -23 54 -7 51 27 -3 24 -2
24 10 3 6 -12 17 -19 24 -17z m1503 23 c0 -5 -7 -7 -15 -4 -8 4 -15 8 -15 10
0 2 7 4 15 4 8 0 15 -4 15 -10z m229 -6 c3 -4 -25 -4 -64 -1 -51 4 -61 3 -35
-3 48 -13 162 -10 179 4 12 9 13 -16 7 -180 -4 -105 -11 -204 -16 -220 -8 -24
-9 -20 -5 21 l5 50 -16 -40 c-9 -22 -18 -53 -21 -68 -5 -27 -6 -27 -25 -10
-19 17 -19 17 -7 -10 8 -18 18 -26 27 -22 12 4 13 -1 8 -26 -3 -17 -7 -41 -7
-53 -1 -11 -5 -3 -10 19 -6 29 -7 15 -5 -50 5 -149 -8 -166 -22 -31 -15 138
-29 176 -106 282 -64 88 -136 232 -144 287 l-5 40 44 -6 c29 -4 37 -3 24 3
-18 8 -18 9 5 9 14 0 32 -4 40 -9 9 -6 10 -10 3 -10 -25 0 17 -152 59 -212 29
-42 42 -35 35 20 l-6 47 15 -34 c18 -43 36 -30 38 28 1 40 1 40 14 16 18 -36
25 -31 18 13 -11 59 -16 72 -32 72 -11 0 -14 -15 -15 -62 l0 -63 -23 60 c-27
70 -42 79 -48 31 -2 -19 -1 -33 3 -30 6 3 19 -77 14 -84 -3 -3 -49 125 -61
167 -4 17 -3 22 6 16 9 -5 11 -4 6 3 -4 7 0 12 11 13 10 0 -4 9 -32 19 l-50
18 94 -4 c52 -2 97 -7 100 -10z m-2215 -10 c3 -8 2 -12 -4 -9 -6 3 -10 10 -10
16 0 14 7 11 14 -7z m86 -5 c0 -6 -4 -7 -10 -4 -5 3 -10 11 -10 16 0 6 5 7 10
4 6 -3 10 -11 10 -16z m185 3 c-3 -3 -11 0 -18 7 -9 10 -8 11 6 5 10 -3 15 -9
12 -12z m1175 14 c0 -3 -4 -8 -10 -11 -5 -3 -10 -1 -10 4 0 6 5 11 10 11 6 0
10 -2 10 -4z m175 -16 c-10 -11 -23 -20 -28 -20 -6 0 -2 9 8 20 10 11 23 20
28 20 6 0 2 -9 -8 -20z m-1082 -17 c-5 -12 -3 -14 8 -8 12 7 12 6 -1 -11 -8
-10 -14 -20 -15 -21 0 -1 -9 5 -20 14 -19 15 -19 15 4 8 16 -5 21 -4 17 4 -4
6 -4 16 -1 21 10 16 15 12 8 -7z m772 -17 c-10 -14 -22 -26 -27 -26 -5 0 1 13
14 29 28 34 36 33 13 -3z m-1465 20 c0 -3 -4 -8 -10 -11 -5 -3 -10 -1 -10 4 0
6 5 11 10 11 6 0 10 -2 10 -4z m436 -12 c-3 -9 -6 -24 -6 -35 0 -10 -5 -19
-11 -19 -6 0 -8 9 -3 23 4 12 7 28 7 35 0 6 5 12 10 12 5 0 6 -7 3 -16z m1009
6 c-3 -5 -12 -10 -18 -10 -7 0 -6 4 3 10 19 12 23 12 15 0z m-1488 -37 c-3
-10 -5 -4 -5 12 0 17 2 24 5 18 2 -7 2 -21 0 -30z m60 0 c-3 -10 -5 -4 -5 12
0 17 2 24 5 18 2 -7 2 -21 0 -30z m1256 20 c-3 -7 -6 -13 -8 -13 -2 0 -5 6 -8
13 -3 8 1 14 8 14 7 0 11 -6 8 -14z m132 7 c-3 -5 -1 -10 6 -10 7 0 10 -3 6
-6 -9 -9 -28 6 -22 17 4 5 8 9 11 9 3 0 2 -4 -1 -10z m658 -40 c9 0 19 -18 26
-46 17 -66 63 -165 114 -242 76 -115 78 -121 98 -326 22 -237 34 -292 69 -318
25 -18 26 -22 19 -76 -5 -31 -13 -140 -19 -241 -6 -102 -18 -221 -26 -265 -53
-278 -218 -458 -590 -644 -296 -147 -427 -157 -754 -55 -272 86 -401 154 -524
278 -125 125 -169 226 -241 545 -35 154 -75 290 -98 334 -16 33 -34 123 -27
138 4 7 13 45 19 83 16 99 54 242 96 365 41 121 65 230 65 301 0 35 4 51 15
55 10 4 15 20 15 45 0 21 3 39 6 39 4 0 26 -18 50 -40 24 -22 53 -40 64 -40
26 0 60 34 60 61 0 17 4 20 23 15 57 -16 77 -17 104 -4 23 11 47 12 118 5 50
-5 98 -9 108 -8 23 0 47 19 47 37 0 20 14 18 72 -12 28 -14 75 -28 104 -31 50
-5 55 -4 84 27 l30 32 31 -26 c37 -31 73 -33 93 -5 l14 21 38 -26 c41 -28 82
-33 116 -15 14 8 23 8 31 0 22 -22 53 -10 97 34 24 25 49 45 55 45 7 0 17 -11
23 -25 13 -29 53 -48 79 -38 10 3 28 15 41 26 l22 20 23 -21 c12 -11 35 -24
50 -27 24 -7 33 -2 65 33 l36 40 23 -24 c12 -13 28 -24 36 -24z m-1845 15 c-3
-3 -9 2 -12 12 -6 14 -5 15 5 6 7 -7 10 -15 7 -18z m617 15 c4 -7 -3 -8 -22
-4 -38 9 -42 14 -10 14 14 0 29 -5 32 -10z m-685 -25 c0 -12 -19 -12 -23 0 -4
9 -1 12 9 8 7 -3 14 -7 14 -8z m-58 -35 c2 19 5 -3 6 -50 1 -66 -2 -79 -9 -60
-6 14 -12 54 -14 90 -3 50 -2 56 4 25 l7 -40 6 35z m118 -13 c0 -18 7 -43 16
-55 15 -22 15 -31 -1 -119 -10 -52 -39 -159 -65 -237 -26 -77 -53 -167 -60
-198 -13 -57 -30 -78 -30 -38 0 20 -47 277 -90 494 -11 54 -20 113 -20 131 0
41 19 58 21 18 2 -25 2 -25 8 7 6 30 9 24 19 -50 6 -47 13 -96 14 -110 6 -52
23 -22 29 50 3 41 6 62 7 45 3 -52 22 -105 37 -105 10 0 15 12 16 38 1 29 2
32 7 14 10 -35 27 -26 30 16 1 27 0 33 -8 22 -7 -11 -10 1 -10 43 0 33 4 57
11 57 5 0 7 -4 4 -10 -3 -6 1 -7 9 -4 14 5 16 -5 17 -62 l2 -69 9 65 c5 36 10
73 9 83 0 9 4 15 10 12 5 -4 9 -21 9 -38z m2248 -429 c-13 -184 -47 -326 -48
-199 0 68 39 313 50 306 3 -2 2 -50 -2 -107z m-2481 -100 c-3 -7 -5 -2 -5 12
0 14 2 19 5 13 2 -7 2 -19 0 -25z m10 -60 c-3 -7 -5 -2 -5 12 0 14 2 19 5 13
2 -7 2 -19 0 -25z m2530 -10 c-3 -8 -6 -5 -6 6 -1 11 2 17 5 13 3 -3 4 -12 1
-19z m-2520 -40 c-3 -7 -5 -2 -5 12 0 14 2 19 5 13 2 -7 2 -19 0 -25z m-20 0
c-3 -8 -6 -5 -6 6 -1 11 2 17 5 13 3 -3 4 -12 1 -19z m30 -60 c-3 -7 -5 -2 -5
12 0 14 2 19 5 13 2 -7 2 -19 0 -25z m2488 -10 c-7 -33 -34 -90 -35 -74 0 11
34 106 38 106 2 0 0 -15 -3 -32z m234 -43 c36 -31 74 -109 90 -183 40 -192
-34 -395 -173 -477 -31 -18 -198 -65 -231 -65 -1 0 2 24 6 53 4 28 8 59 8 68
1 11 12 15 49 15 94 0 212 93 212 169 0 59 -65 96 -139 80 -18 -4 -31 -3 -31
3 0 16 83 98 129 126 44 28 48 35 29 54 -39 39 -156 -35 -217 -138 l-21 -35 0
66 c0 57 4 73 36 125 88 146 182 198 253 139z m-2727 -224 c57 -24 103 -78
123 -143 27 -91 23 -94 -51 -38 -63 48 -108 69 -121 56 -4 -3 11 -21 33 -38
76 -64 139 -127 132 -133 -3 -4 -31 1 -61 11 -52 16 -57 16 -81 0 -19 -12 -26
-25 -26 -48 0 -26 11 -43 58 -88 56 -55 62 -58 173 -86 10 -3 25 -39 43 -105
16 -55 27 -102 25 -103 -2 -2 -53 13 -114 33 -167 55 -272 135 -325 249 -70
147 -66 341 9 421 26 27 35 31 84 31 32 0 74 -8 99 -19z m2623 -191 c17 -28
-99 -111 -170 -122 -28 -4 -35 59 -8 69 10 3 25 12 33 19 45 38 130 58 145 34z
m-2503 -167 l47 -5 11 -55 c7 -30 10 -56 8 -59 -3 -2 -31 15 -64 38 -104 73
-132 107 -76 94 15 -4 48 -9 74 -13z m1471 -1002 c10 -97 61 -212 87 -196 14
9 21 -12 7 -23 -6 -5 -57 -24 -112 -42 -113 -37 -226 -44 -325 -21 -90 22 -93
25 -66 66 28 40 50 152 41 205 l-6 36 123 0 c95 1 135 5 178 21 30 10 58 18
61 16 3 -1 9 -29 12 -62z m-947 -336 c-11 -8 -25 -15 -30 -15 -6 0 -2 7 8 15
11 8 25 15 30 15 6 0 2 -7 -8 -15z m-1108 -1508 c-24 -87 -44 -153 -46 -148
-6 18 76 317 84 308 2 -2 -15 -74 -38 -160z"/>
<path d="M3292 5769 c-1 -47 -5 -108 -8 -135 -5 -37 -4 -46 5 -38 8 7 11 50 8
135 -2 99 -3 107 -5 38z"/>
<path d="M3343 5690 c0 -91 -3 -175 -7 -187 -8 -26 8 -32 18 -7 9 23 5 305 -4
334 -5 15 -8 -43 -7 -140z"/>
<path d="M3232 5774 c-1 -39 -5 -87 -8 -105 -5 -26 -4 -31 5 -23 8 7 11 42 8
105 -3 84 -3 87 -5 23z"/>
<path d="M3153 5760 c-7 -41 -15 -97 -18 -125 -3 -27 -9 -61 -12 -75 -5 -24
-6 -24 -14 -5 -6 13 -7 0 -4 -39 6 -61 10 -74 21 -63 9 9 45 315 42 352 -2 19
-8 2 -15 -45z"/>
<path d="M3032 5710 c-1 -19 3 -53 7 -75 l9 -40 0 35 c1 19 -3 53 -7 75 l-9
40 0 -35z"/>
<path d="M2905 5651 c19 -54 44 -100 45 -80 0 8 -4 19 -9 25 -5 5 -14 26 -21
46 -6 21 -15 40 -20 43 -5 3 -3 -12 5 -34z"/>
<path d="M3532 5581 c-22 -49 -43 -106 -47 -128 -4 -23 14 11 45 86 27 68 49
126 47 128 -2 2 -22 -37 -45 -86z"/>
<path d="M2831 5657 c-1 -15 62 -162 75 -177 12 -12 14 -12 13 0 0 16 -88 190
-88 177z"/>
<path d="M2981 5640 c0 -8 4 -22 9 -30 12 -18 12 -2 0 25 -6 13 -9 15 -9 5z"/>
<path d="M3077 5643 c-3 -5 -8 -38 -12 -73 -11 -108 -25 -183 -41 -218 -9 -18
-13 -38 -10 -45 2 -7 5 -4 5 6 1 9 5 17 10 17 14 0 40 108 51 214 10 94 9 118
-3 99z"/>
<path d="M2715 5617 c3 -16 19 -57 36 -93 17 -35 27 -69 23 -75 -4 -8 -3 -9 4
-5 7 4 17 -3 24 -18 11 -26 19 -31 31 -20 6 7 -10 45 -23 54 -4 3 -28 46 -54
95 -26 50 -44 77 -41 62z"/>
<path d="M3892 5557 c-17 -47 -14 -59 4 -18 8 19 13 39 12 43 -2 5 -9 -6 -16
-25z"/>
<path d="M2350 5535 c0 -5 26 -58 83 -168 10 -20 30 -46 43 -56 17 -13 20 -21
12 -24 -7 -3 2 -5 20 -4 18 0 35 4 38 9 3 4 -4 8 -15 8 -23 0 -64 47 -54 63 3
5 2 7 -4 4 -6 -4 -32 32 -58 78 -43 77 -65 107 -65 90z"/>
<path d="M3565 5509 c-4 -6 -5 -12 -2 -15 2 -3 7 2 10 11 7 17 1 20 -8 4z"/>
<path d="M3853 5428 c-1 -13 -6 -24 -11 -26 -6 -2 -7 -12 -5 -24 5 -16 8 -13
19 18 7 21 10 42 6 46 -4 4 -9 -2 -9 -14z"/>
<path d="M3081 5404 c0 -11 3 -14 6 -6 3 7 2 16 -1 19 -3 4 -6 -2 -5 -13z"/>
<path d="M3371 5394 c0 -11 3 -14 6 -6 3 7 2 16 -1 19 -3 4 -6 -2 -5 -13z"/>
<path d="M2410 5370 c0 -5 5 -10 11 -10 5 0 7 5 4 10 -3 6 -8 10 -11 10 -2 0
-4 -4 -4 -10z"/>
<path d="M2980 5350 c0 -5 5 -10 10 -10 6 0 10 5 10 10 0 6 -4 10 -10 10 -5 0
-10 -4 -10 -10z"/>
<path d="M2500 5346 c0 -2 7 -7 16 -10 8 -3 12 -2 9 4 -6 10 -25 14 -25 6z"/>
<path d="M2771 5324 c0 -11 3 -14 6 -6 3 7 2 16 -1 19 -3 4 -6 -2 -5 -13z"/>
<path d="M2871 5265 c0 -11 4 -27 9 -35 9 -13 10 -13 9 0 0 8 -4 24 -9 35 l-9
20 0 -20z"/>
<path d="M3261 5264 c0 -11 3 -14 6 -6 3 7 2 16 -1 19 -3 4 -6 -2 -5 -13z"/>
<path d="M2991 5224 c0 -11 3 -14 6 -6 3 7 2 16 -1 19 -3 4 -6 -2 -5 -13z"/>
<path d="M3721 5414 c0 -11 3 -14 6 -6 3 7 2 16 -1 19 -3 4 -6 -2 -5 -13z"/>
<path d="M2165 5429 c-4 -6 -5 -12 -2 -15 2 -3 7 2 10 11 7 17 1 20 -8 4z"/>
<path d="M2222 5338 c8 -12 21 -24 28 -26 8 -3 6 5 -6 21 -23 32 -42 36 -22 5z"/>
<path d="M3202 5220 c0 -14 2 -19 5 -12 2 6 2 18 0 25 -3 6 -5 1 -5 -13z"/>
<path d="M4290 4806 c0 -2 8 -10 18 -17 15 -13 16 -12 3 4 -13 16 -21 21 -21
13z"/>
<path d="M3772 4241 c-96 -36 -267 -152 -278 -189 -16 -57 34 -64 227 -31 96
16 150 20 244 16 66 -3 129 -7 140 -8 15 -3 21 2 23 21 5 53 -69 134 -165 181
-63 31 -126 34 -191 10z m173 -45 c54 -25 110 -68 125 -95 8 -16 -1 -17 -113
-18 -67 0 -157 -6 -200 -13 -43 -7 -80 -10 -83 -7 -3 3 4 25 16 49 12 24 26
50 30 58 9 19 95 49 140 49 19 1 58 -10 85 -23z m-308 -100 c-12 -24 -24 -43
-27 -43 -3 0 -13 -3 -22 -7 -9 -4 -27 -6 -40 -4 -20 3 -14 9 42 51 35 26 65
47 67 47 1 0 -8 -20 -20 -44z"/>
<path d="M2541 4134 c-58 -21 -103 -49 -184 -118 -78 -66 -90 -92 -56 -119 28
-22 41 -21 259 18 101 19 189 29 253 29 97 0 97 0 97 24 0 61 -187 182 -279
182 -25 -1 -66 -8 -90 -16z m125 -27 c0 -1 16 -25 36 -54 36 -51 38 -63 10
-63 -12 0 -12 2 -1 17 12 15 12 16 -4 10 -10 -4 -27 -2 -37 3 -14 7 -21 6 -27
-4 -9 -15 -60 -28 -110 -28 -18 1 -33 -4 -33 -10 0 -7 -18 -9 -52 -5 -30 4
-47 3 -40 -2 11 -7 11 -9 -2 -14 -8 -3 -16 -1 -18 5 -3 8 -11 7 -28 -2 -23
-12 -22 -10 5 18 17 17 36 32 43 32 6 0 12 3 12 8 0 14 95 70 146 86 38 12 96
13 100 3z m114 -69 c0 -14 -19 1 -31 25 -12 22 -12 22 10 3 11 -11 21 -23 21
-28z m-115 -28 c3 -5 1 -10 -4 -10 -6 0 -11 5 -11 10 0 6 2 10 4 10 3 0 8 -4
11 -10z"/>
<path d="M2680 4041 c0 -5 5 -13 10 -16 6 -3 10 -2 10 4 0 5 -4 13 -10 16 -5
3 -10 2 -10 -4z"/>
<path d="M3479 4101 c-46 -45 -60 -71 -41 -71 5 0 30 27 55 60 26 33 44 60 41
60 -4 0 -29 -22 -55 -49z"/>
<path d="M2880 4054 c0 -14 65 -94 77 -94 21 0 15 24 -14 63 -24 31 -63 50
-63 31z"/>
<path d="M3768 3894 c-100 -31 -201 -159 -215 -272 -11 -94 27 -227 88 -303
90 -114 289 -122 403 -16 26 24 30 25 51 11 31 -21 47 2 17 26 -31 26 -14 42
31 28 20 -6 40 -8 43 -5 11 11 -17 37 -38 37 -17 0 -20 5 -15 28 3 15 9 36 13
47 4 11 -8 -2 -27 -30 -34 -49 -122 -125 -146 -125 -8 0 -3 14 11 35 31 45 49
149 40 228 -12 107 -48 190 -110 251 -14 15 -14 16 3 16 40 -1 109 -44 170
-106 36 -36 67 -63 70 -60 8 8 -32 92 -69 148 -17 27 -28 36 -28 26 0 -23 -6
-22 -38 1 -35 24 -126 51 -171 50 -20 0 -57 -7 -83 -15z"/>
<path d="M3601 3825 c-55 -63 -91 -154 -72 -183 6 -10 10 -4 15 20 8 45 52
138 78 165 12 13 19 25 16 28 -3 3 -19 -10 -37 -30z"/>
<path d="M2614 3820 c-105 -21 -212 -102 -260 -197 -25 -51 -29 -67 -27 -136
2 -94 22 -168 62 -227 l29 -44 -19 -27 c-35 -49 -14 -71 23 -24 28 35 40 31
32 -10 -7 -40 6 -46 28 -13 14 21 15 21 63 5 161 -55 356 27 436 185 l22 43
-49 -51 c-44 -46 -154 -114 -185 -114 -6 0 2 15 19 34 98 112 102 346 7 470
-19 25 -30 46 -25 46 46 0 170 -96 231 -179 l25 -33 2 50 c2 58 -8 91 -45 144
-26 38 -71 74 -80 64 -3 -3 8 -21 25 -41 18 -19 39 -50 48 -68 16 -31 15 -31
-24 10 -55 57 -118 91 -198 108 -76 16 -81 16 -140 5z"/>
<path d="M2378 3722 c-60 -62 -99 -140 -106 -215 -6 -73 12 -72 22 2 8 59 53
152 102 209 50 59 38 62 -18 4z"/>
<path d="M3237 3213 c-23 -22 18 -104 43 -88 19 11 11 74 -9 85 -23 12 -26 12
-34 3z"/>
<path d="M3325 3201 c-3 -11 -1 -30 5 -41 9 -17 14 -19 26 -9 8 7 14 24 12 38
-4 32 -34 40 -43 12z"/>
<path d="M3464 3016 c6 -23 1 -26 -72 -50 l-77 -25 -80 23 c-53 16 -81 29 -83
40 -2 9 -7 16 -11 16 -10 0 -51 -56 -51 -70 0 -13 23 -13 36 0 6 6 36 1 84
-16 86 -29 117 -27 232 12 39 13 80 24 90 24 29 0 21 27 -16 49 -45 28 -60 27
-52 -3z"/>
<path d="M2075 4484 c-4 -22 -11 -50 -16 -64 -7 -20 -8 -16 -7 22 2 57 -8 73
-17 27 -3 -19 0 -59 8 -89 13 -47 16 -51 21 -30 12 49 27 163 22 167 -3 3 -8
-12 -11 -33z"/>
<path d="M1841 4384 c0 -11 3 -14 6 -6 3 7 2 16 -1 19 -3 4 -6 -2 -5 -13z"/>
<path d="M1852 4340 c0 -14 2 -19 5 -12 2 6 2 18 0 25 -3 6 -5 1 -5 -13z"/>
<path d="M2910 1885 c0 -2 22 -17 49 -34 76 -49 230 -96 376 -114 17 -2 5 -5
-25 -6 -89 -2 -219 18 -308 48 -90 30 -99 25 -14 -8 120 -47 321 -63 467 -37
l70 13 -130 5 c-163 7 -285 35 -399 92 -47 24 -86 42 -86 41z"/>
<path d="M3005 1725 c17 -8 39 -14 50 -14 11 0 0 7 -25 15 -56 17 -64 17 -25
-1z"/>
<path d="M3088 1703 c6 -2 18 -2 25 0 6 3 1 5 -13 5 -14 0 -19 -2 -12 -5z"/>
<path d="M3185 1690 c33 -4 85 -8 115 -7 l55 0 -65 7 c-36 4 -87 8 -115 7
l-50 0 60 -7z"/>
<path d="M1974 1345 c-3 -8 17 -55 45 -104 75 -131 165 -323 202 -431 l33 -95
7 -305 c4 -168 8 -329 8 -357 l1 -53 35 0 36 0 -6 118 c-2 64 -7 221 -10 347
-9 382 -33 607 -76 704 -11 24 -21 42 -23 40 -1 -2 3 -62 9 -134 11 -114 12
-149 2 -134 -1 2 -22 45 -46 94 -48 100 -130 243 -168 293 -26 35 -41 40 -49
17z"/>
<path d="M4778 1255 c-45 -41 -74 -86 -126 -190 l-50 -100 -7 90 c-8 104 -17
147 -31 152 -11 4 -25 -162 -45 -542 -6 -115 -21 -295 -35 -399 -13 -104 -24
-207 -24 -228 0 -38 0 -38 39 -38 38 0 39 2 45 37 8 50 23 272 36 513 11 194
11 196 52 300 23 58 75 174 116 258 74 154 83 196 30 147z"/>
<path d="M1627 1053 c-124 -217 -225 -446 -268 -611 -24 -93 -29 -132 -28
-220 1 -59 5 -118 10 -132 6 -17 7 -3 4 45 -14 217 49 431 237 803 54 105 96
192 94 192 -3 0 -24 -35 -49 -77z"/>
<path d="M1769 974 c-12 -25 -19 -47 -17 -50 2 -2 14 19 25 46 12 28 19 50 17
50 -3 0 -14 -21 -25 -46z"/>
<path d="M1670 820 c-11 -22 -18 -40 -15 -40 2 0 14 18 25 40 11 22 18 40 15
40 -2 0 -14 -18 -25 -40z"/>
<path d="M2406 675 c2 -82 7 -267 10 -410 4 -143 8 -262 10 -264 2 -2 5 76 5
175 1 144 3 165 9 109 24 -207 34 -276 43 -282 6 -4 8 3 4 18 -8 28 -62 523
-76 689 l-9 115 4 -150z"/>
<path d="M1636 753 c-6 -14 -5 -15 5 -6 7 7 10 15 7 18 -3 3 -9 -2 -12 -12z"/>
<path d="M2377 520 c3 -135 9 -308 13 -385 6 -102 7 -71 3 115 -3 140 -9 314
-13 385 -5 91 -6 57 -3 -115z"/>
<path d="M5011 660 c0 -8 4 -24 9 -35 5 -13 9 -14 9 -5 0 8 -4 24 -9 35 -5 13
-9 14 -9 5z"/>
<path d="M4991 614 c0 -11 3 -14 6 -6 3 7 2 16 -1 19 -3 4 -6 -2 -5 -13z"/>
<path d="M5031 584 c0 -11 3 -14 6 -6 3 7 2 16 -1 19 -3 4 -6 -2 -5 -13z"/>
<path d="M5001 574 c0 -11 3 -14 6 -6 3 7 2 16 -1 19 -3 4 -6 -2 -5 -13z"/>
<path d="M4981 544 c0 -11 3 -14 6 -6 3 7 2 16 -1 19 -3 4 -6 -2 -5 -13z"/>
<path d="M5041 550 c0 -8 4 -24 9 -35 5 -13 9 -14 9 -5 0 8 -4 24 -9 35 -5 13
-9 14 -9 5z"/>
<path d="M5011 534 c0 -11 3 -14 6 -6 3 7 2 16 -1 19 -3 4 -6 -2 -5 -13z"/>
<path d="M4991 515 c1 -19 18 -51 18 -35 0 8 -4 22 -9 30 -5 8 -9 11 -9 5z"/>
<path d="M5251 513 c-2 -29 170 -524 176 -506 2 5 -30 106 -71 224 -89 257
-104 298 -105 282z"/>
<path d="M5021 494 c0 -11 3 -14 6 -6 3 7 2 16 -1 19 -3 4 -6 -2 -5 -13z"/>
<path d="M5060 484 c0 -5 14 -60 30 -123 38 -138 35 -164 -4 -47 -16 47 -30
86 -32 86 -2 0 -1 -15 1 -32 3 -20 -4 -7 -19 32 -13 36 -25 61 -25 55 -1 -15
60 -197 65 -192 2 2 -1 18 -7 36 -6 18 -9 34 -6 37 3 3 15 -25 27 -62 16 -48
25 -63 32 -53 7 10 7 7 3 -8 -3 -12 0 -33 6 -45 7 -13 21 -50 31 -83 38 -127
10 14 -42 205 -47 179 -60 219 -60 194z"/>
<path d="M2531 464 c0 -11 3 -14 6 -6 3 7 2 16 -1 19 -3 4 -6 -2 -5 -13z"/>
<path d="M4461 452 c-5 -10 -21 -92 -35 -182 -39 -261 -40 -270 -23 -270 11 0
16 20 21 83 4 45 17 151 30 235 12 83 21 152 20 152 -2 0 -8 -8 -13 -18z"/>
<path d="M5031 460 c0 -8 4 -24 9 -35 5 -13 9 -14 9 -5 0 8 -4 24 -9 35 -5 13
-9 14 -9 5z"/>
<path d="M2542 420 c0 -14 2 -19 5 -12 2 6 2 18 0 25 -3 6 -5 1 -5 -13z"/>
<path d="M2552 370 c0 -14 2 -19 5 -12 2 6 2 18 0 25 -3 6 -5 1 -5 -13z"/>
<path d="M2511 354 c0 -11 3 -14 6 -6 3 7 2 16 -1 19 -3 4 -6 -2 -5 -13z"/>
<path d="M2561 324 c0 -11 3 -14 6 -6 3 7 2 16 -1 19 -3 4 -6 -2 -5 -13z"/>
<path d="M2521 313 c-1 -19 56 -266 68 -293 l12 -25 -6 25 c-66 291 -73 316
-74 293z"/>
<path d="M4306 224 c-15 -52 -26 -97 -24 -100 3 -2 17 40 32 92 15 53 25 98
23 101 -2 2 -16 -40 -31 -93z"/>
<path d="M4351 304 c0 -11 3 -14 6 -6 3 7 2 16 -1 19 -3 4 -6 -2 -5 -13z"/>
<path d="M2591 304 c-1 -14 77 -242 90 -264 4 -8 8 -13 8 -10 1 11 -98 284
-98 274z"/>
<path d="M2571 293 c-1 -13 62 -235 78 -273 20 -49 10 -8 -29 127 -45 153 -48
163 -49 146z"/>
<path d="M4310 145 c-18 -75 -30 -138 -27 -142 3 -3 8 5 11 18 3 13 17 75 31
138 14 63 24 116 21 118 -2 3 -19 -57 -36 -132z"/>
<path d="M5081 245 c0 -5 13 -46 30 -90 16 -44 27 -67 24 -52 -7 33 -53 156
-54 142z"/>
<path d="M4271 94 c0 -11 3 -14 6 -6 3 7 2 16 -1 19 -3 4 -6 -2 -5 -13z"/>
<path d="M4261 54 c0 -11 3 -14 6 -6 3 7 2 16 -1 19 -3 4 -6 -2 -5 -13z"/>
<path d="M1452 40 c0 -14 2 -19 5 -12 2 6 2 18 0 25 -3 6 -5 1 -5 -13z"/>
<path d="M1501 14 c0 -11 3 -14 6 -6 3 7 2 16 -1 19 -3 4 -6 -2 -5 -13z"/>
</g>
</svg>
